<svg width="2048" height="804" viewBox="0 0 2048 804" fill="none" xmlns="http://www.w3.org/2000/svg">
<g clip-path="url(#clip0_2_358)">
<rect width="2048" height="804" fill="black" fill-opacity="0.7"/>
<g clip-path="url(#clip1_2_358)">
<path d="M684 510L679.867 506L675.733 510L679.867 514L684 510Z" fill="#FBC625"/>
<path d="M173.533 504L169.4 508L165.267 504H173.533Z" fill="#FBC625"/>
<path d="M285.133 513L281 517L276.867 513H285.133Z" fill="#FBC625"/>
<path d="M1385.63 506L1381.5 510L1377.37 506H1385.63Z" fill="#FBC625"/>
<path d="M1895.07 517L1890.93 521L1886.8 517H1895.07Z" fill="#FBC625"/>
<path d="M1895.07 513L1890.93 517L1886.8 513H1895.07Z" fill="#FBC625"/>
<path d="M1826.87 513L1833.07 507H1828.93L1822.73 513H1826.87Z" fill="#FBC625"/>
<path d="M493.867 506L488.7 511H475.267L480.433 506H493.867Z" fill="#FBC625"/>
<path d="M989.867 515H998.133L994 511L989.867 515Z" fill="#FBC625"/>
<path d="M1377.37 514H1385.63L1381.5 510L1377.37 514Z" fill="#FBC625"/>
<path d="M77.4333 517L64 504V804H2048V517H2033.53L2029.4 513L2025.27 517H1907.98L1897.13 528H1868.2L1843.4 504L1829.97 517H1564.4L1554.07 528H1546.83L1543.73 524H1516.87L1496.2 504H1439.37L1426.97 517H1399.07L1395.97 514L1390.8 520L1387.7 517H1107.67L1094.23 504H1041.53L1016.73 528H1010.53L1000.2 517H705.7L700.533 522L689.167 512L684 517H549.667L539.333 528H533.133L508.333 504L494.9 517H285.133L281 522L276.867 517H251.033L237.6 504H185.933L165.267 524H139.433L132.2 517H77.4333Z" fill="#FBC625"/>
</g>
<path d="M52 517L65 504V804H-1855V517H-1841L-1837 513L-1833 517H-1719.5L-1709 528H-1681L-1657 504L-1644 517H-1387L-1377 528H-1370L-1367 524H-1341L-1321 504H-1266L-1254 517H-1227L-1224 514L-1219 520L-1216 517H-945L-932 504H-881L-857 528H-851L-841 517H-556L-551 522L-540 512L-535 517H-405L-395 528H-389L-365 504L-352 517H-149L-145 522L-141 517H-116L-103 504H-53L-33 524H-8L-1 517H52Z" fill="#FBC625"/>
</g>
<defs>
<clipPath id="clip0_2_358">
<rect width="2048" height="804" fill="white"/>
</clipPath>
<clipPath id="clip1_2_358">
<rect width="1984" height="300" fill="white" transform="translate(64 504)"/>
</clipPath>
</defs>
</svg>
