<svg width="5186" height="417" viewBox="0 0 5186 417" fill="none" xmlns="http://www.w3.org/2000/svg">
<mask id="mask0_59_1308" style="mask-type:alpha" maskUnits="userSpaceOnUse" x="0" y="0" width="2593" height="417">
<rect width="2593" height="417" fill="#D9D9D9"/>
</mask>
<g mask="url(#mask0_59_1308)">
<path d="M0.12825 264.746L0 263.463L186.732 246.399L303.504 85.7683L304.017 86.0249L481.259 169.099L583.026 157.68L634.39 0L866.715 0.769798L907.178 78.4552L1021.9 184.11L1225.11 131.379L1322.45 100.138L1479.88 47.2142L1480.07 47.2784L1714 120.602L1764.98 122.462L1907.59 62.9951L1985.89 38.105L1986.15 38.2974L2165.51 182.057L2337.17 219.072L2623.55 109.889L2624 111.107L2337.23 220.355H2337.04L2164.93 183.276L2164.8 183.212L1985.63 39.5163L1908.04 64.2139L1765.24 123.745H1765.11L1713.81 121.885L1713.74 121.82L1479.94 48.5614L1322.84 101.357L1225.5 132.598L1021.58 185.521L1021.32 185.265L906.152 79.225L906.088 79.1608L865.946 2.05279L635.352 1.283L583.987 158.835L583.539 158.899L481.067 170.446L480.874 170.318L303.953 87.372L187.438 247.618L187.117 247.682L0.12825 264.746Z" fill="url(#paint0_linear_59_1308)"/>
<path d="M0.12825 271.995L0 270.776L185.45 254.546L304.658 101.549L305.171 101.742L481.9 180.902L582.961 169.997L638.622 19.8223H639.071L869.28 20.5921L911.346 94.5568L1026.96 195.208L1229.02 144.979L1325.79 115.213L1482.51 64.8554L1482.7 64.9196L1715.41 134.715L1766.01 136.447L1908.04 79.8665L1985.95 56.1311L1986.21 56.3235L2166.34 193.283L2336.91 228.437L2622.14 124.515L2622.52 125.734L2337.04 229.785H2336.85L2165.76 194.438L2165.7 194.374L1985.7 57.5424L1908.49 81.0212L1766.2 137.73H1766.07L1715.15 135.933H1715.09L1482.51 66.2026L1326.17 116.432L1229.34 146.197L1026.58 196.619L1026.32 196.362L910.32 95.3907L910.256 95.2624L868.511 21.8751L639.52 21.1053L583.923 171.216L481.708 182.185L305.107 103.153L186.091 255.765H185.835L0.12825 271.995Z" fill="url(#paint1_linear_59_1308)"/>
<path d="M0.12825 279.308L0 278.025L184.167 262.629L305.877 117.33L306.326 117.522L482.542 192.706L582.961 182.378L642.854 39.7087H643.303L871.845 40.4144L915.514 110.658L1031.97 206.242L1232.87 158.514L1329.19 130.288L1485.07 82.4325L1485.27 82.4966L1716.76 148.763L1767.03 150.495L1908.56 96.6737L1986.02 74.1571L1986.28 74.3496L2167.17 204.445L2336.66 237.867L2620.67 139.141L2621.11 140.296L2336.78 239.215L2336.59 239.15L2166.6 205.664L2166.53 205.536L1985.76 75.5684L1908.94 97.8926L1767.22 151.778H1767.1L1716.57 150.046H1716.5L1485.07 83.7796L1329.51 131.507L1233.19 159.797L1031.64 207.653L1031.39 207.46L914.488 111.492V111.428L871.14 41.6974L643.752 40.9917L583.859 183.533L583.474 183.597L482.349 193.989L482.221 193.925L306.262 118.87L184.809 263.848L184.552 263.912L0.12825 279.308Z" fill="url(#paint2_linear_59_1308)"/>
<path d="M0.12825 286.621L0 285.338L182.885 270.712L307.031 133.111L307.48 133.239L483.183 204.51L582.897 194.695L647.087 59.531L874.346 60.2367L919.618 126.76L1036.97 217.339L1236.72 172.114L1332.52 145.363L1487.64 100.01L1487.83 100.074L1718.1 162.876L1767.99 164.48L1909.01 113.545L1986.08 92.1832L1986.34 92.3757L2167.94 215.607L2336.46 247.297L2619.19 153.703L2619.64 154.922L2336.53 248.58H2336.4L2167.49 216.826L2167.37 216.762L1985.83 93.5945L1909.39 114.764L1768.19 165.763H1768.12L1717.91 164.159H1717.85L1487.64 101.357L1332.9 146.582L1237.04 173.397L1036.65 218.751L1036.45 218.558L918.721 127.658L918.657 127.53L873.705 61.5196L647.92 60.814L583.731 195.913H583.41L483.055 205.793L482.862 205.728L307.416 134.586L183.462 271.995H183.205L0.12825 286.621Z" fill="url(#paint3_linear_59_1308)"/>
<path d="M0.12825 293.934L0 292.651L181.602 278.859L308.249 148.828L308.634 149.02L483.888 216.313L582.897 207.011L651.319 79.3533H651.704L876.911 79.9948L877.103 80.2514L923.786 142.862L1041.97 228.437L1240.56 185.714L1335.85 160.439L1490.2 117.651H1490.4L1719.45 176.989L1769.02 178.529L1909.45 130.352L1986.15 110.209L1986.4 110.402L2168.78 226.769L2336.21 256.727L2617.78 168.329L2618.16 169.548L2336.33 258.01H2336.14L2168.33 227.988L2168.2 227.924L1985.95 111.621L1909.84 131.571L1769.21 179.812H1769.08L1719.26 178.272L1490.2 118.934L1336.24 161.722L1240.89 186.997L1041.71 229.785L922.825 143.696L876.27 81.2778L652.088 80.6363L583.667 208.23L583.346 208.294L483.696 217.596L483.568 217.532L308.57 150.367L182.179 280.078H181.923L0.12825 293.934Z" fill="url(#paint4_linear_59_1308)"/>
<path d="M0.12825 301.247L0 299.964L180.256 286.942L309.404 164.608L484.529 228.052L582.833 219.328L655.551 99.2397H655.936L879.476 99.8171L927.955 158.963L1047.04 239.535L1244.41 199.313L1339.25 175.514L1492.83 135.228H1492.96L1720.86 191.102L1770.05 192.514L1909.97 147.224L1986.21 128.235L1986.4 128.428L2169.61 237.932L2336.01 266.093L2616.3 182.955L2616.69 184.174L2336.08 267.44H2335.95L2169.16 239.15L2169.03 239.086L1986.02 129.647L1910.29 148.443L1770.17 193.797L1720.61 192.385L1492.83 136.575L1339.57 176.797L1244.67 200.532L1046.71 240.882L1046.52 240.754L927.057 159.925L926.993 159.861L878.835 101.1L656.321 100.523L583.603 220.547L583.282 220.611L484.337 229.4L484.209 229.335L309.724 166.084L180.833 288.225H180.576L0.12825 301.247Z" fill="url(#paint5_linear_59_1308)"/>
<path d="M0.12825 308.496L0 307.213L178.973 295.089L310.622 180.389L310.943 180.517L485.171 239.856L582.833 231.709L659.783 119.062H660.168L881.977 119.639L932.123 175.065L1052.04 250.569L1248.26 212.913L1342.59 190.589L1495.4 152.805L1495.53 152.869L1722.21 205.215L1771.01 206.498L1910.42 164.031L1986.28 146.326L1986.47 146.39L2170.44 249.094L2335.76 275.523L2614.89 197.581L2615.21 198.8L2335.82 276.87L2335.69 276.806L2169.99 250.377L2169.93 250.312L1986.08 147.673L1910.8 165.314L1771.2 207.845H1771.07L1722.02 206.498L1721.95 206.434L1495.4 154.152L1342.91 191.872L1248.52 214.132L1051.78 251.916L1051.52 251.788L931.289 176.027L881.4 120.922L660.489 120.345L583.539 232.928H583.218L484.978 241.139H484.85L310.879 181.865L179.486 296.308H179.294L0.12825 308.496Z" fill="url(#paint6_linear_59_1308)"/>
<path d="M0.12825 315.809L0 314.526L177.691 303.172L311.776 196.17L312.097 196.234L485.812 251.66L582.769 244.026L664.08 138.884H664.336L884.542 139.462L936.291 191.166L1057.04 261.667L1252.11 226.513L1345.99 205.664L1497.96 170.382L1498.09 170.446L1723.56 219.328L1772.03 220.547L1910.93 180.902L1986.34 164.352L1986.53 164.416L2171.28 260.32L2335.5 284.953L2613.42 212.143L2613.74 213.426L2335.63 286.236H2335.5L2170.83 261.539L2170.76 261.475L1986.15 165.699L1911.25 182.121L1772.23 221.83L1723.36 220.547L1497.96 171.729L1346.24 206.947L1252.36 227.732L1056.78 263.014L1056.59 262.886L935.457 192.193L935.393 192.129L884.029 140.745L664.657 140.167L583.474 245.245L583.154 245.309L485.684 252.943H485.555L312.033 197.581L178.204 304.455H178.011L0.12825 315.809Z" fill="url(#paint7_linear_59_1308)"/>
<path d="M0.12825 323.122L0 321.839L176.408 311.319L312.931 211.887L313.251 212.015L486.453 263.463L582.769 256.343L668.312 158.771L887.107 159.22L887.235 159.412L940.395 207.268L1062.04 272.765L1255.95 240.049L1349.32 220.739L1500.53 188.023H1500.66L1724.9 233.377L1773.06 234.532L1911.38 197.774L1986.4 182.378L1986.6 182.442L2172.11 271.482L2335.31 294.383L2611.94 226.769L2612.27 228.052L2335.37 295.666H2335.24L2171.73 272.701H2171.6L1986.21 183.725L1911.7 198.993L1773.19 235.815H1773.12L1724.77 234.66L1500.53 189.306L1349.58 222.022L1256.21 241.332L1061.85 274.112L1061.66 273.984L939.69 208.358L939.626 208.294L886.594 160.503L668.889 160.054L583.41 257.626H583.154L486.325 264.746H486.197L313.187 213.298L176.857 312.538H176.665L0.12825 323.122Z" fill="url(#paint8_linear_59_1308)"/>
<path d="M0.0641251 330.436L0 329.153L175.126 319.402L314.149 227.668L314.405 227.732L487.094 275.267L582.769 268.723L672.544 178.593H672.801L889.608 179.042L944.563 223.37L1067.04 283.799L1259.8 253.648L1352.66 235.815L1503.09 205.6H1503.22L1726.25 247.49L1774.02 248.58L1911.89 214.581L1986.47 200.404L1986.66 200.468L2172.88 282.644L2335.05 303.749L2610.53 241.396L2610.79 242.614L2335.12 305.096H2334.99L2172.56 283.863H2172.49L1986.28 201.751L1912.15 215.864L1774.21 249.863L1726.12 248.773L1503.16 206.883L1352.91 237.098L1260.06 254.931L1066.85 285.146L1066.66 285.082L943.858 224.46L889.159 180.325L673.057 179.876L583.346 269.942H583.09L486.966 276.55L486.902 276.486L314.341 229.079L175.575 320.685H175.382L0.0641251 330.436Z" fill="url(#paint9_linear_59_1308)"/>
<path d="M0.0641251 337.749L0 336.466L173.843 327.485L315.303 243.448L315.56 243.513L487.736 287.006L582.705 281.04L676.777 198.479H676.969L892.173 198.864L892.301 198.993L948.731 239.471L1072.11 294.897L1263.71 267.248L1356.05 250.89L1505.72 223.177L1505.79 223.241L1727.66 261.603L1775.05 262.565L1912.34 231.452L1986.53 218.43L1986.66 218.494L2173.71 293.806L2334.86 313.179L2609.06 256.022L2609.32 257.241L2334.92 314.462H2334.8L2173.39 295.089L2173.33 295.025L1986.34 219.777L1912.6 232.671L1775.18 263.848H1775.11L1727.47 262.886L1505.72 224.524L1356.25 252.173L1263.91 268.531L1071.92 296.244L1071.72 296.18L948.09 240.626L891.724 200.147L677.225 199.762L583.218 282.259L487.607 288.353L487.543 288.289L315.496 244.796L174.228 328.768L0.0641251 337.749Z" fill="url(#paint10_linear_59_1308)"/>
<path d="M0.0641251 344.998L0 343.715L172.561 335.632L316.522 259.165L316.714 259.229L488.377 298.81L582.705 293.357L681.009 218.302H681.201L894.674 218.687L894.866 218.751L952.835 255.573L1077.11 305.994L1267.56 280.848L1359.39 265.965L1508.29 240.818H1508.42L1729.01 275.716L1776.07 276.614L1912.85 248.26L1986.6 236.456L1986.72 236.52L2174.55 304.968L2334.6 322.609L2607.65 270.584L2607.84 271.867L2334.67 323.892H2334.54L2174.23 306.251H2174.16L1986.47 237.803L1913.04 249.543L1776.2 277.897H1776.14L1728.81 276.999L1508.29 242.101L1359.58 267.248L1267.75 282.131L1076.92 307.277L1076.79 307.213L952.258 256.727H952.194L894.353 219.97L681.394 219.585L583.154 294.64L488.313 300.093H488.185L316.65 260.576L172.881 336.915H172.753L0.0641251 344.998Z" fill="url(#paint11_linear_59_1308)"/>
<path d="M0.0641251 352.311L0 351.028L171.278 343.715L317.676 274.946L317.868 275.01L489.082 310.613L582.641 305.738L685.241 238.124H685.433L897.239 238.509L897.367 238.573L957.003 271.674L1082.11 317.028L1271.41 294.448L1362.79 281.04L1510.85 258.395H1510.98L1730.35 289.829L1777.1 290.599L1913.3 265.131L1986.66 254.482L1986.79 254.546L2175.38 316.194L2334.41 332.039L2606.17 285.21L2606.37 286.493L2334.41 333.322H2334.35L2175.12 317.413H2175L1986.53 255.765L1913.49 266.414L1777.16 291.882H1777.1L1730.22 291.112L1510.85 259.678L1362.92 282.323L1271.54 295.731L1081.98 318.375L1081.85 318.311L956.49 272.893L896.918 239.792L685.626 239.407L583.09 306.957H582.897L488.954 311.896H488.89L317.868 276.293L171.599 344.998H171.471L0.0641251 352.311Z" fill="url(#paint12_linear_59_1308)"/>
<path d="M0.0644531 359.624V358.341L169.996 351.862L318.895 290.727L489.724 322.417L582.641 318.055L689.474 258.01H689.602L899.804 258.267L961.108 287.84L1087.11 328.126L1275.26 308.047L1366.12 296.115L1513.42 275.972H1513.55L1731.7 303.942L1778.06 304.647L1913.81 282.002L1986.66 272.508L1986.85 272.572L2176.15 327.356L2334.15 341.405L2604.7 299.836L2604.89 301.119L2334.22 342.752L2334.09 342.688L2175.96 328.639L2175.89 328.575L1986.6 273.791L1914.01 283.221L1778.19 305.93H1778.13L1731.57 305.225L1513.42 277.255L1366.31 297.398L1275.38 309.33L1086.99 329.409H1086.86L960.659 288.995H960.595L899.483 259.55L689.794 259.293L583.026 319.338H582.834L489.596 323.7H489.532L319.023 292.01L170.253 353.145H170.124L0.0644531 359.624Z" fill="url(#paint13_linear_59_1308)"/>
<path d="M0.0644531 366.937V365.654L168.714 359.944L320.049 306.444L320.177 306.508L490.365 334.22L582.641 330.371L693.706 277.833H693.834L902.305 278.089L902.433 278.153L965.276 303.942L1092.18 339.224L1279.1 321.583L1369.46 311.191L1516.05 293.614H1516.11L1733.11 318.055L1779.09 318.632L1914.26 298.81L1986.72 290.534L1986.85 290.599L2176.98 338.518L2333.9 350.835L2603.29 314.462L2603.48 315.745L2333.96 352.118H2333.9L2176.79 339.801H2176.73L1986.66 291.817L1914.46 300.093L1779.15 319.915H1779.09L1733.05 319.338L1516.05 294.897L1369.65 312.474L1279.23 322.866L1092.05 340.507H1091.92L964.891 305.161L964.827 305.096L902.048 279.372L693.962 279.116L582.962 331.654H582.834L490.301 335.503H490.237L320.177 307.791L168.97 361.227H168.842L0.0644531 366.937Z" fill="url(#paint14_linear_59_1308)"/>
<path d="M0.0644531 374.25V372.967L167.431 368.091L321.203 322.224H321.395L491.006 346.024L582.577 342.688L697.938 297.655H698.066L904.87 297.912H904.934L969.444 320.043L1097.18 350.322L1282.95 335.183L1372.85 326.266L1518.61 311.191H1518.68L1734.46 332.103L1780.11 332.681L1914.78 315.681L1986.79 308.56L1986.92 308.625L2177.82 349.68L2333.71 360.265L2601.81 329.088L2602.01 330.307L2333.71 361.548H2333.64L2177.63 350.963H2177.56L1986.72 309.843L1914.9 316.964L1780.18 333.964H1780.11L1734.39 333.386L1518.61 312.474L1372.98 327.549L1283.08 336.466L1097.05 351.605L1096.99 351.541L969.123 321.262L904.678 299.195L698.195 298.938L582.834 343.971H582.769L490.942 347.307L490.878 347.243L321.331 323.507L167.623 369.374H167.559L0.0644531 374.25Z" fill="url(#paint15_linear_59_1308)"/>
<path d="M0.0644531 381.499V380.216L166.149 376.174L322.421 338.005H322.55L491.648 357.763L582.577 355.069L702.17 317.541H702.235L907.371 317.734H907.499L973.612 336.145L1102.18 361.356L1286.8 348.782L1376.19 341.341L1521.18 328.768H1521.24L1735.8 346.216L1781.08 346.665L1915.23 332.488L1986.85 326.587H1986.98L2178.65 360.843L2333.45 369.695L2600.4 343.65L2600.53 344.933L2333.51 370.978H2333.45L2178.46 362.126L1986.79 327.87L1915.35 333.771L1781.14 347.948L1735.74 347.499L1521.18 330.051L1376.32 342.624L1286.93 350.065L1102.12 362.639H1101.99L973.291 337.428L907.243 319.017L702.363 318.824L582.769 356.352H582.705L491.584 359.046H491.519L322.486 339.288L166.277 377.457H166.213L0.0644531 381.499Z" fill="url(#paint16_linear_59_1308)"/>
<path d="M0.0644531 388.812V387.529L164.866 384.321L323.576 353.722H323.704L492.289 369.567L582.513 367.386L706.403 337.364H706.467L909.936 337.492L910 337.556L977.716 352.246L1107.18 372.454L1290.65 362.382L1379.59 356.416L1523.74 346.345H1523.81L1737.15 360.329L1782.17 360.714L1915.74 349.36L1986.92 344.613H1986.98L2179.48 372.069L2333.26 379.061L2598.93 358.277L2599.06 359.56L2333.26 380.344H2333.19L2179.36 373.352L1986.92 345.896L1915.8 350.643L1782.17 361.997L1737.15 361.612L1523.74 347.628L1379.65 357.699L1290.77 363.665L1107.12 373.737H1107.06L977.524 353.529L909.808 338.775L706.531 338.647L582.705 368.669H582.641L492.225 370.85L323.64 355.005L164.994 385.604H164.93L0.0644531 388.812Z" fill="url(#paint17_linear_59_1308)"/>
<path d="M0.0644531 396.125V394.842L163.584 392.404L324.794 369.503H324.858L492.994 381.37L582.513 379.703L710.635 357.186H710.699L912.501 357.314H912.565L981.884 368.412L1112.19 383.487L1294.56 375.982L1382.92 371.491L1526.31 363.986H1526.37L1738.56 374.442L1783.13 374.699L1916.19 366.231L1986.98 362.639H1987.05L2180.32 383.231L2333 388.491L2597.52 372.903L2597.58 374.186L2333.06 389.774L2180.19 384.514L1986.98 363.922L1916.25 367.514L1783.19 375.982L1738.5 375.725L1526.37 365.269L1382.99 372.774L1294.56 377.265L1112.19 384.835L1112.12 384.77L981.692 369.631L912.373 358.597L710.763 358.469L582.641 380.986H582.577L492.93 382.653L324.794 370.786L163.648 393.687L0.0644531 396.125Z" fill="url(#paint18_linear_59_1308)"/>
<path d="M0.0644531 403.438V402.155L162.301 400.487L325.948 385.219H326.012L493.636 393.174L582.513 392.084L714.867 377.072H714.931L915.002 377.137H915.066L985.988 384.514L1117.25 394.585L1298.41 389.582L1386.26 386.567L1528.87 381.563L1739.91 388.555L1784.15 388.684L1916.7 383.038L1987.05 380.665H1987.11L2181.09 394.393L2332.81 397.921L2596.04 387.529L2596.11 388.812L2332.81 399.204L2181.02 395.676L1987.05 381.948L1916.7 384.321L1784.15 389.967L1739.84 389.838L1528.87 382.846L1386.32 387.85L1298.41 390.865L1117.19 395.868L985.86 385.797L914.938 378.42L714.931 378.355L582.513 393.367L493.571 394.457L325.948 386.502L162.365 401.77L0.0644531 403.438Z" fill="url(#paint19_linear_59_1308)"/>
<path d="M0.0644531 410.751V409.468L161.019 408.634L327.103 401L494.277 404.978L582.449 404.4L719.099 396.895L917.567 396.959L990.156 400.615L1122.25 405.683L1302.25 403.181L1389.66 401.642L1531.5 399.14L1741.25 402.668L1785.12 402.732L1917.15 399.91L1987.11 398.691L2181.92 405.555L2332.55 407.351L2594.57 402.155L2594.63 403.438L2332.55 408.634L2181.86 406.838L1987.11 399.974L1917.15 401.193L1785.18 404.015L1741.25 403.951L1531.5 400.423L1389.66 402.925L1302.25 404.464L1122.25 406.966L990.092 401.898L917.503 398.242L719.099 398.178L582.513 405.683L494.213 406.261L327.103 402.283L161.019 409.917L0.0644531 410.751Z" fill="url(#paint20_linear_59_1308)"/>
<path d="M2593.16 416.717H0.0644531V418H2593.16V416.717Z" fill="url(#paint21_linear_59_1308)"/>
</g>
<mask id="mask1_59_1308" style="mask-type:alpha" maskUnits="userSpaceOnUse" x="2593" y="0" width="2593" height="417">
<rect width="2593" height="417" transform="matrix(-1 0 0 1 5186 0)" fill="#D9D9D9"/>
</mask>
<g mask="url(#mask1_59_1308)">
<path d="M5185.87 264.746L5186 263.463L4999.27 246.399L4882.5 85.7683L4881.98 86.0249L4704.74 169.099L4602.97 157.68L4551.61 0L4319.28 0.769798L4278.82 78.4552L4164.1 184.11L3960.89 131.379L3863.55 100.138L3706.12 47.2142L3705.93 47.2784L3472 120.602L3421.02 122.462L3278.41 62.9951L3200.11 38.105L3199.85 38.2974L3020.49 182.057L2848.83 219.072L2562.45 109.889L2562 111.107L2848.77 220.355H2848.96L3021.07 183.276L3021.2 183.212L3200.37 39.5163L3277.96 64.2139L3420.76 123.745H3420.89L3472.19 121.885L3472.26 121.82L3706.06 48.5614L3863.16 101.357L3960.5 132.598L4164.42 185.521L4164.68 185.265L4279.85 79.225L4279.91 79.1608L4320.05 2.05279L4550.65 1.283L4602.01 158.835L4602.46 158.899L4704.93 170.446L4705.13 170.318L4882.05 87.372L4998.56 247.618L4998.88 247.682L5185.87 264.746Z" fill="url(#paint22_linear_59_1308)"/>
<path d="M5185.87 271.995L5186 270.776L5000.55 254.546L4881.34 101.549L4880.83 101.742L4704.1 180.902L4603.04 169.997L4547.38 19.8223H4546.93L4316.72 20.5921L4274.65 94.5568L4159.04 195.208L3956.98 144.979L3860.21 115.213L3703.49 64.8554L3703.3 64.9196L3470.59 134.715L3419.99 136.447L3277.96 79.8665L3200.05 56.1311L3199.79 56.3235L3019.66 193.283L2849.09 228.437L2563.86 124.515L2563.48 125.734L2848.96 229.785H2849.15L3020.24 194.438L3020.3 194.374L3200.3 57.5424L3277.51 81.0212L3419.8 137.73H3419.93L3470.85 135.933H3470.91L3703.49 66.2026L3859.83 116.432L3956.66 146.197L4159.42 196.619L4159.68 196.362L4275.68 95.3907L4275.74 95.2624L4317.49 21.8751L4546.48 21.1053L4602.08 171.216L4704.29 182.185L4880.89 103.153L4999.91 255.765H5000.17L5185.87 271.995Z" fill="url(#paint23_linear_59_1308)"/>
<path d="M5185.87 279.308L5186 278.025L5001.83 262.629L4880.12 117.33L4879.67 117.522L4703.46 192.706L4603.04 182.378L4543.15 39.7087H4542.7L4314.15 40.4144L4270.49 110.658L4154.03 206.242L3953.13 158.514L3856.81 130.288L3700.93 82.4325L3700.73 82.4966L3469.24 148.763L3418.97 150.495L3277.44 96.6737L3199.98 74.1571L3199.72 74.3496L3018.83 204.445L2849.34 237.867L2565.33 139.141L2564.89 140.296L2849.22 239.215L2849.41 239.15L3019.4 205.664L3019.47 205.536L3200.24 75.5684L3277.06 97.8926L3418.78 151.778H3418.9L3469.43 150.046H3469.5L3700.93 83.7796L3856.49 131.507L3952.81 159.797L4154.36 207.653L4154.61 207.46L4271.51 111.492V111.428L4314.86 41.6974L4542.25 40.9917L4602.14 183.533L4602.53 183.597L4703.65 193.989L4703.78 193.925L4879.74 118.87L5001.19 263.848L5001.45 263.912L5185.87 279.308Z" fill="url(#paint24_linear_59_1308)"/>
<path d="M5185.87 286.621L5186 285.338L5003.12 270.712L4878.97 133.111L4878.52 133.239L4702.82 204.51L4603.1 194.695L4538.91 59.531L4311.65 60.2367L4266.38 126.76L4149.03 217.339L3949.28 172.114L3853.48 145.363L3698.36 100.01L3698.17 100.074L3467.9 162.876L3418.01 164.48L3276.99 113.545L3199.92 92.1832L3199.66 92.3757L3018.06 215.607L2849.54 247.297L2566.81 153.703L2566.36 154.922L2849.47 248.58H2849.6L3018.51 216.826L3018.63 216.762L3200.17 93.5945L3276.61 114.764L3417.81 165.763H3417.88L3468.09 164.159H3468.15L3698.36 101.357L3853.1 146.582L3948.96 173.397L4149.35 218.751L4149.55 218.558L4267.28 127.658L4267.34 127.53L4312.3 61.5196L4538.08 60.814L4602.27 195.913H4602.59L4702.95 205.793L4703.14 205.728L4878.58 134.586L5002.54 271.995H5002.79L5185.87 286.621Z" fill="url(#paint25_linear_59_1308)"/>
<path d="M5185.87 293.934L5186 292.651L5004.4 278.859L4877.75 148.828L4877.37 149.02L4702.11 216.313L4603.1 207.011L4534.68 79.3533H4534.3L4309.09 79.9948L4308.9 80.2514L4262.21 142.862L4144.03 228.437L3945.44 185.714L3850.15 160.439L3695.8 117.651H3695.6L3466.55 176.989L3416.98 178.529L3276.55 130.352L3199.85 110.209L3199.6 110.402L3017.22 226.769L2849.79 256.727L2568.22 168.329L2567.84 169.548L2849.67 258.01H2849.86L3017.67 227.988L3017.8 227.924L3200.05 111.621L3276.16 131.571L3416.79 179.812H3416.92L3466.74 178.272L3695.8 118.934L3849.76 161.722L3945.11 186.997L4144.29 229.785L4263.18 143.696L4309.73 81.2778L4533.91 80.6363L4602.33 208.23L4602.65 208.294L4702.3 217.596L4702.43 217.532L4877.43 150.367L5003.82 280.078H5004.08L5185.87 293.934Z" fill="url(#paint26_linear_59_1308)"/>
<path d="M5185.87 301.247L5186 299.964L5005.74 286.942L4876.6 164.608L4701.47 228.052L4603.17 219.328L4530.45 99.2397H4530.06L4306.52 99.8171L4258.05 158.963L4138.96 239.535L3941.59 199.313L3846.75 175.514L3693.17 135.228H3693.04L3465.14 191.102L3415.95 192.514L3276.03 147.224L3199.79 128.235L3199.6 128.428L3016.39 237.932L2849.99 266.093L2569.7 182.955L2569.31 184.174L2849.92 267.44H2850.05L3016.84 239.15L3016.97 239.086L3199.98 129.647L3275.71 148.443L3415.83 193.797L3465.39 192.385L3693.17 136.575L3846.43 176.797L3941.33 200.532L4139.29 240.882L4139.48 240.754L4258.94 159.925L4259.01 159.861L4307.17 101.1L4529.68 100.523L4602.4 220.547L4602.72 220.611L4701.66 229.4L4701.79 229.335L4876.28 166.084L5005.17 288.225H5005.42L5185.87 301.247Z" fill="url(#paint27_linear_59_1308)"/>
<path d="M5185.87 308.496L5186 307.213L5007.03 295.089L4875.38 180.389L4875.06 180.517L4700.83 239.856L4603.17 231.709L4526.22 119.062H4525.83L4304.02 119.639L4253.88 175.065L4133.96 250.569L3937.74 212.913L3843.41 190.589L3690.6 152.805L3690.47 152.869L3463.79 205.215L3414.99 206.498L3275.58 164.031L3199.72 146.326L3199.53 146.39L3015.56 249.094L2850.24 275.523L2571.11 197.581L2570.79 198.8L2850.18 276.87L2850.31 276.806L3016.01 250.377L3016.07 250.312L3199.92 147.673L3275.2 165.314L3414.8 207.845H3414.93L3463.98 206.498L3464.05 206.434L3690.6 154.152L3843.09 191.872L3937.48 214.132L4134.22 251.916L4134.48 251.788L4254.71 176.027L4304.6 120.922L4525.51 120.345L4602.46 232.928H4602.78L4701.02 241.139H4701.15L4875.12 181.865L5006.51 296.308H5006.71L5185.87 308.496Z" fill="url(#paint28_linear_59_1308)"/>
<path d="M5185.87 315.809L5186 314.526L5008.31 303.172L4874.22 196.17L4873.9 196.234L4700.19 251.66L4603.23 244.026L4521.92 138.884H4521.66L4301.46 139.462L4249.71 191.166L4128.96 261.667L3933.89 226.513L3840.01 205.664L3688.04 170.382L3687.91 170.446L3462.44 219.328L3413.97 220.547L3275.07 180.902L3199.66 164.352L3199.47 164.416L3014.72 260.32L2850.5 284.953L2572.58 212.143L2572.26 213.426L2850.37 286.236H2850.5L3015.17 261.539L3015.24 261.475L3199.85 165.699L3274.75 182.121L3413.77 221.83L3462.64 220.547L3688.04 171.729L3839.76 206.947L3933.64 227.732L4129.22 263.014L4129.41 262.886L4250.54 192.193L4250.61 192.129L4301.97 140.745L4521.34 140.167L4602.53 245.245L4602.85 245.309L4700.32 252.943H4700.44L4873.97 197.581L5007.8 304.455H5007.99L5185.87 315.809Z" fill="url(#paint29_linear_59_1308)"/>
<path d="M5185.87 323.122L5186 321.839L5009.59 311.319L4873.07 211.887L4872.75 212.015L4699.55 263.463L4603.23 256.343L4517.69 158.771L4298.89 159.22L4298.76 159.412L4245.61 207.268L4123.96 272.765L3930.05 240.049L3836.68 220.739L3685.47 188.023H3685.34L3461.1 233.377L3412.94 234.532L3274.62 197.774L3199.6 182.378L3199.4 182.442L3013.89 271.482L2850.69 294.383L2574.06 226.769L2573.73 228.052L2850.63 295.666H2850.76L3014.27 272.701H3014.4L3199.79 183.725L3274.3 198.993L3412.81 235.815H3412.88L3461.23 234.66L3685.47 189.306L3836.42 222.022L3929.79 241.332L4124.15 274.112L4124.34 273.984L4246.31 208.358L4246.37 208.294L4299.41 160.503L4517.11 160.054L4602.59 257.626H4602.85L4699.68 264.746H4699.8L4872.81 213.298L5009.14 312.538H5009.34L5185.87 323.122Z" fill="url(#paint30_linear_59_1308)"/>
<path d="M5185.94 330.436L5186 329.153L5010.87 319.402L4871.85 227.668L4871.59 227.732L4698.91 275.267L4603.23 268.723L4513.46 178.593H4513.2L4296.39 179.042L4241.44 223.37L4118.96 283.799L3926.2 253.648L3833.34 235.815L3682.91 205.6H3682.78L3459.75 247.49L3411.98 248.58L3274.11 214.581L3199.53 200.404L3199.34 200.468L3013.12 282.644L2850.95 303.749L2575.47 241.396L2575.21 242.614L2850.88 305.096H2851.01L3013.44 283.863H3013.51L3199.72 201.751L3273.85 215.864L3411.79 249.863L3459.88 248.773L3682.84 206.883L3833.09 237.098L3925.94 254.931L4119.15 285.146L4119.34 285.082L4242.14 224.46L4296.84 180.325L4512.94 179.876L4602.65 269.942H4602.91L4699.03 276.55L4699.1 276.486L4871.66 229.079L5010.43 320.685H5010.62L5185.94 330.436Z" fill="url(#paint31_linear_59_1308)"/>
<path d="M5185.94 337.749L5186 336.466L5012.16 327.485L4870.7 243.448L4870.44 243.513L4698.26 287.006L4603.3 281.04L4509.22 198.479H4509.03L4293.83 198.864L4293.7 198.993L4237.27 239.471L4113.89 294.897L3922.29 267.248L3829.95 250.89L3680.28 223.177L3680.21 223.241L3458.34 261.603L3410.95 262.565L3273.66 231.452L3199.47 218.43L3199.34 218.494L3012.29 293.806L2851.14 313.179L2576.94 256.022L2576.68 257.241L2851.08 314.462H2851.2L3012.61 295.089L3012.67 295.025L3199.66 219.777L3273.4 232.671L3410.82 263.848H3410.89L3458.53 262.886L3680.28 224.524L3829.75 252.173L3922.09 268.531L4114.08 296.244L4114.28 296.18L4237.91 240.626L4294.28 200.147L4508.77 199.762L4602.78 282.259L4698.39 288.353L4698.46 288.289L4870.5 244.796L5011.77 328.768L5185.94 337.749Z" fill="url(#paint32_linear_59_1308)"/>
<path d="M5185.94 344.998L5186 343.715L5013.44 335.632L4869.48 259.165L4869.29 259.229L4697.62 298.81L4603.29 293.357L4504.99 218.302H4504.8L4291.33 218.687L4291.13 218.751L4233.16 255.573L4108.89 305.994L3918.44 280.848L3826.61 265.965L3677.71 240.818H3677.58L3456.99 275.716L3409.93 276.614L3273.15 248.26L3199.4 236.456L3199.28 236.52L3011.45 304.968L2851.4 322.609L2578.35 270.584L2578.16 271.867L2851.33 323.892H2851.46L3011.77 306.251H3011.84L3199.53 237.803L3272.96 249.543L3409.8 277.897H3409.86L3457.19 276.999L3677.71 242.101L3826.42 267.248L3918.25 282.131L4109.08 307.277L4109.21 307.213L4233.74 256.727H4233.81L4291.65 219.97L4504.61 219.585L4602.85 294.64L4697.69 300.093H4697.82L4869.35 260.576L5013.12 336.915H5013.25L5185.94 344.998Z" fill="url(#paint33_linear_59_1308)"/>
<path d="M5185.94 352.311L5186 351.028L5014.72 343.715L4868.32 274.946L4868.13 275.01L4696.92 310.613L4603.36 305.738L4500.76 238.124H4500.57L4288.76 238.509L4288.63 238.573L4229 271.674L4103.89 317.028L3914.59 294.448L3823.21 281.04L3675.15 258.395H3675.02L3455.65 289.829L3408.9 290.599L3272.7 265.131L3199.34 254.482L3199.21 254.546L3010.62 316.194L2851.59 332.039L2579.83 285.21L2579.63 286.493L2851.59 333.322H2851.65L3010.88 317.413H3011L3199.47 255.765L3272.51 266.414L3408.84 291.882H3408.9L3455.78 291.112L3675.15 259.678L3823.08 282.323L3914.46 295.731L4104.02 318.375L4104.15 318.311L4229.51 272.893L4289.08 239.792L4500.37 239.407L4602.91 306.957H4603.1L4697.05 311.896H4697.11L4868.13 276.293L5014.4 344.998H5014.53L5185.94 352.311Z" fill="url(#paint34_linear_59_1308)"/>
<path d="M5185.94 359.624V358.341L5016 351.862L4867.11 290.727L4696.28 322.417L4603.36 318.055L4496.53 258.01H4496.4L4286.2 258.267L4224.89 287.84L4098.89 328.126L3910.74 308.047L3819.88 296.115L3672.58 275.972H3672.45L3454.3 303.942L3407.94 304.647L3272.19 282.002L3199.34 272.508L3199.15 272.572L3009.85 327.356L2851.85 341.405L2581.3 299.836L2581.11 301.119L2851.78 342.752L2851.91 342.688L3010.04 328.639L3010.11 328.575L3199.4 273.791L3271.99 283.221L3407.81 305.93H3407.87L3454.43 305.225L3672.58 277.255L3819.69 297.398L3910.62 309.33L4099.01 329.409H4099.14L4225.34 288.995H4225.41L4286.52 259.55L4496.21 259.293L4602.97 319.338H4603.17L4696.4 323.7H4696.47L4866.98 292.01L5015.75 353.145H5015.88L5185.94 359.624Z" fill="url(#paint35_linear_59_1308)"/>
<path d="M5185.94 366.937V365.654L5017.29 359.944L4865.95 306.444L4865.82 306.508L4695.63 334.22L4603.36 330.371L4492.29 277.833H4492.17L4283.7 278.089L4283.57 278.153L4220.72 303.942L4093.82 339.224L3906.9 321.583L3816.54 311.191L3669.95 293.614H3669.89L3452.89 318.055L3406.91 318.632L3271.74 298.81L3199.28 290.534L3199.15 290.599L3009.02 338.518L2852.1 350.835L2582.71 314.462L2582.52 315.745L2852.04 352.118H2852.1L3009.21 339.801H3009.27L3199.34 291.817L3271.54 300.093L3406.85 319.915H3406.91L3452.95 319.338L3669.95 294.897L3816.35 312.474L3906.77 322.866L4093.95 340.507H4094.08L4221.11 305.161L4221.17 305.096L4283.95 279.372L4492.04 279.116L4603.04 331.654H4603.17L4695.7 335.503H4695.76L4865.82 307.791L5017.03 361.227H5017.16L5185.94 366.937Z" fill="url(#paint36_linear_59_1308)"/>
<path d="M5185.94 374.25V372.967L5018.57 368.091L4864.8 322.224H4864.6L4694.99 346.024L4603.42 342.688L4488.06 297.655H4487.93L4281.13 297.912H4281.07L4216.56 320.043L4088.82 350.322L3903.05 335.183L3813.15 326.266L3667.39 311.191H3667.32L3451.54 332.103L3405.89 332.681L3271.22 315.681L3199.21 308.56L3199.08 308.625L3008.18 349.68L2852.29 360.265L2584.19 329.088L2583.99 330.307L2852.29 361.548H2852.36L3008.37 350.963H3008.44L3199.28 309.843L3271.1 316.964L3405.82 333.964H3405.89L3451.61 333.386L3667.39 312.474L3813.02 327.549L3902.92 336.466L4088.95 351.605L4089.01 351.541L4216.88 321.262L4281.32 299.195L4487.81 298.938L4603.17 343.971H4603.23L4695.06 347.307L4695.12 347.243L4864.67 323.507L5018.38 369.374H5018.44L5185.94 374.25Z" fill="url(#paint37_linear_59_1308)"/>
<path d="M5185.94 381.499V380.216L5019.85 376.174L4863.58 338.005H4863.45L4694.35 357.763L4603.42 355.069L4483.83 317.541H4483.77L4278.63 317.734H4278.5L4212.39 336.145L4083.82 361.356L3899.2 348.782L3809.81 341.341L3664.82 328.768H3664.76L3450.2 346.216L3404.92 346.665L3270.77 332.488L3199.15 326.587H3199.02L3007.35 360.843L2852.55 369.695L2585.6 343.65L2585.47 344.933L2852.49 370.978H2852.55L3007.54 362.126L3199.21 327.87L3270.65 333.771L3404.86 347.948L3450.26 347.499L3664.82 330.051L3809.68 342.624L3899.07 350.065L4083.88 362.639H4084.01L4212.71 337.428L4278.76 319.017L4483.64 318.824L4603.23 356.352H4603.29L4694.42 359.046H4694.48L4863.51 339.288L5019.72 377.457H5019.79L5185.94 381.499Z" fill="url(#paint38_linear_59_1308)"/>
<path d="M5185.94 388.812V387.529L5021.13 384.321L4862.42 353.722H4862.3L4693.71 369.567L4603.49 367.386L4479.6 337.364H4479.53L4276.06 337.492L4276 337.556L4208.28 352.246L4078.82 372.454L3895.35 362.382L3806.41 356.416L3662.26 346.345H3662.19L3448.85 360.329L3403.83 360.714L3270.26 349.36L3199.08 344.613H3199.02L3006.52 372.069L2852.74 379.061L2587.07 358.277L2586.94 359.56L2852.74 380.344H2852.81L3006.64 373.352L3199.08 345.896L3270.2 350.643L3403.83 361.997L3448.85 361.612L3662.26 347.628L3806.35 357.699L3895.23 363.665L4078.88 373.737H4078.94L4208.48 353.529L4276.19 338.775L4479.47 338.647L4603.29 368.669H4603.36L4693.78 370.85L4862.36 355.005L5021.01 385.604H5021.07L5185.94 388.812Z" fill="url(#paint39_linear_59_1308)"/>
<path d="M5185.94 396.125V394.842L5022.42 392.404L4861.21 369.503H4861.14L4693.01 381.37L4603.49 379.703L4475.37 357.186H4475.3L4273.5 357.314H4273.43L4204.12 368.412L4073.81 383.487L3891.44 375.982L3803.08 371.491L3659.69 363.986H3659.63L3447.44 374.442L3402.87 374.699L3269.81 366.231L3199.02 362.639H3198.95L3005.68 383.231L2853 388.491L2588.48 372.903L2588.42 374.186L2852.94 389.774L3005.81 384.514L3199.02 363.922L3269.75 367.514L3402.81 375.982L3447.5 375.725L3659.63 365.269L3803.01 372.774L3891.44 377.265L4073.81 384.835L4073.88 384.77L4204.31 369.631L4273.63 358.597L4475.24 358.469L4603.36 380.986H4603.42L4693.07 382.653L4861.21 370.786L5022.35 393.687L5185.94 396.125Z" fill="url(#paint40_linear_59_1308)"/>
<path d="M5185.94 403.438V402.155L5023.7 400.487L4860.05 385.219H4859.99L4692.36 393.174L4603.49 392.084L4471.13 377.072H4471.07L4271 377.137H4270.93L4200.01 384.514L4068.75 394.585L3887.59 389.582L3799.74 386.567L3657.13 381.563L3446.09 388.555L3401.85 388.684L3269.3 383.038L3198.95 380.665H3198.89L3004.91 394.393L2853.19 397.921L2589.96 387.529L2589.89 388.812L2853.19 399.204L3004.98 395.676L3198.95 381.948L3269.3 384.321L3401.85 389.967L3446.16 389.838L3657.13 382.846L3799.68 387.85L3887.59 390.865L4068.81 395.868L4200.14 385.797L4271.06 378.42L4471.07 378.355L4603.49 393.367L4692.43 394.457L4860.05 386.502L5023.63 401.77L5185.94 403.438Z" fill="url(#paint41_linear_59_1308)"/>
<path d="M5185.94 410.751V409.468L5024.98 408.634L4858.9 401L4691.72 404.978L4603.55 404.4L4466.9 396.895L4268.43 396.959L4195.84 400.615L4063.75 405.683L3883.75 403.181L3796.34 401.642L3654.5 399.14L3444.75 402.668L3400.88 402.732L3268.85 399.91L3198.89 398.691L3004.08 405.555L2853.45 407.351L2591.43 402.155L2591.37 403.438L2853.45 408.634L3004.14 406.838L3198.89 399.974L3268.85 401.193L3400.82 404.015L3444.75 403.951L3654.5 400.423L3796.34 402.925L3883.75 404.464L4063.75 406.966L4195.91 401.898L4268.5 398.242L4466.9 398.178L4603.49 405.683L4691.79 406.261L4858.9 402.283L5024.98 409.917L5185.94 410.751Z" fill="url(#paint42_linear_59_1308)"/>
<path d="M2592.84 416.717H5185.94V418H2592.84V416.717Z" fill="url(#paint43_linear_59_1308)"/>
</g>
<defs>
<linearGradient id="paint0_linear_59_1308" x1="0" y1="0" x2="2628.55" y2="57.7886" gradientUnits="userSpaceOnUse">
<stop stop-color="#DD5AFE"/>
<stop offset="1" stop-color="#6366F1"/>
</linearGradient>
<linearGradient id="paint1_linear_59_1308" x1="0" y1="19.8223" x2="2626.94" y2="80.4211" gradientUnits="userSpaceOnUse">
<stop stop-color="#DD5AFE"/>
<stop offset="1" stop-color="#6366F1"/>
</linearGradient>
<linearGradient id="paint2_linear_59_1308" x1="0" y1="39.7087" x2="2625.38" y2="103.415" gradientUnits="userSpaceOnUse">
<stop stop-color="#DD5AFE"/>
<stop offset="1" stop-color="#6366F1"/>
</linearGradient>
<linearGradient id="paint3_linear_59_1308" x1="0" y1="59.531" x2="2623.73" y2="126.667" gradientUnits="userSpaceOnUse">
<stop stop-color="#DD5AFE"/>
<stop offset="1" stop-color="#6366F1"/>
</linearGradient>
<linearGradient id="paint4_linear_59_1308" x1="0" y1="79.3533" x2="2622.05" y2="150.317" gradientUnits="userSpaceOnUse">
<stop stop-color="#DD5AFE"/>
<stop offset="1" stop-color="#6366F1"/>
</linearGradient>
<linearGradient id="paint5_linear_59_1308" x1="0" y1="99.2397" x2="2620.33" y2="174.529" gradientUnits="userSpaceOnUse">
<stop stop-color="#DD5AFE"/>
<stop offset="1" stop-color="#6366F1"/>
</linearGradient>
<linearGradient id="paint6_linear_59_1308" x1="0" y1="119.062" x2="2618.56" y2="199.249" gradientUnits="userSpaceOnUse">
<stop stop-color="#DD5AFE"/>
<stop offset="1" stop-color="#6366F1"/>
</linearGradient>
<linearGradient id="paint7_linear_59_1308" x1="0" y1="138.884" x2="2616.73" y2="224.632" gradientUnits="userSpaceOnUse">
<stop stop-color="#DD5AFE"/>
<stop offset="1" stop-color="#6366F1"/>
</linearGradient>
<linearGradient id="paint8_linear_59_1308" x1="0" y1="158.771" x2="2614.81" y2="250.959" gradientUnits="userSpaceOnUse">
<stop stop-color="#DD5AFE"/>
<stop offset="1" stop-color="#6366F1"/>
</linearGradient>
<linearGradient id="paint9_linear_59_1308" x1="0" y1="178.593" x2="2612.78" y2="278.242" gradientUnits="userSpaceOnUse">
<stop stop-color="#DD5AFE"/>
<stop offset="1" stop-color="#6366F1"/>
</linearGradient>
<linearGradient id="paint10_linear_59_1308" x1="0" y1="198.479" x2="2610.59" y2="306.973" gradientUnits="userSpaceOnUse">
<stop stop-color="#DD5AFE"/>
<stop offset="1" stop-color="#6366F1"/>
</linearGradient>
<linearGradient id="paint11_linear_59_1308" x1="0" y1="218.302" x2="2608.19" y2="337.385" gradientUnits="userSpaceOnUse">
<stop stop-color="#DD5AFE"/>
<stop offset="1" stop-color="#6366F1"/>
</linearGradient>
<linearGradient id="paint12_linear_59_1308" x1="0" y1="238.124" x2="2605.47" y2="370.04" gradientUnits="userSpaceOnUse">
<stop stop-color="#DD5AFE"/>
<stop offset="1" stop-color="#6366F1"/>
</linearGradient>
<linearGradient id="paint13_linear_59_1308" x1="0.0644531" y1="258.01" x2="2602.25" y2="405.976" gradientUnits="userSpaceOnUse">
<stop stop-color="#DD5AFE"/>
<stop offset="1" stop-color="#6366F1"/>
</linearGradient>
<linearGradient id="paint14_linear_59_1308" x1="0.0644531" y1="277.833" x2="2598.34" y2="446.226" gradientUnits="userSpaceOnUse">
<stop stop-color="#DD5AFE"/>
<stop offset="1" stop-color="#6366F1"/>
</linearGradient>
<linearGradient id="paint15_linear_59_1308" x1="0.0644531" y1="297.655" x2="2593.05" y2="493.04" gradientUnits="userSpaceOnUse">
<stop stop-color="#DD5AFE"/>
<stop offset="1" stop-color="#6366F1"/>
</linearGradient>
<linearGradient id="paint16_linear_59_1308" x1="0.0644531" y1="317.541" x2="2585.27" y2="550.698" gradientUnits="userSpaceOnUse">
<stop stop-color="#DD5AFE"/>
<stop offset="1" stop-color="#6366F1"/>
</linearGradient>
<linearGradient id="paint17_linear_59_1308" x1="0.0644531" y1="337.364" x2="2572.52" y2="625.618" gradientUnits="userSpaceOnUse">
<stop stop-color="#DD5AFE"/>
<stop offset="1" stop-color="#6366F1"/>
</linearGradient>
<linearGradient id="paint18_linear_59_1308" x1="0.0644531" y1="357.186" x2="2547.57" y2="734.134" gradientUnits="userSpaceOnUse">
<stop stop-color="#DD5AFE"/>
<stop offset="1" stop-color="#6366F1"/>
</linearGradient>
<linearGradient id="paint19_linear_59_1308" x1="0.0644531" y1="377.072" x2="2483.4" y2="919.451" gradientUnits="userSpaceOnUse">
<stop stop-color="#DD5AFE"/>
<stop offset="1" stop-color="#6366F1"/>
</linearGradient>
<linearGradient id="paint20_linear_59_1308" x1="0.0644531" y1="396.895" x2="2217.8" y2="1318.02" gradientUnits="userSpaceOnUse">
<stop stop-color="#DD5AFE"/>
<stop offset="1" stop-color="#6366F1"/>
</linearGradient>
<linearGradient id="paint21_linear_59_1308" x1="0.0644531" y1="416.717" x2="123.24" y2="968.931" gradientUnits="userSpaceOnUse">
<stop stop-color="#DD5AFE"/>
<stop offset="1" stop-color="#6366F1"/>
</linearGradient>
<linearGradient id="paint22_linear_59_1308" x1="5186" y1="0" x2="2557.45" y2="57.7886" gradientUnits="userSpaceOnUse">
<stop stop-color="#DD5AFE"/>
<stop offset="1" stop-color="#6366F1"/>
</linearGradient>
<linearGradient id="paint23_linear_59_1308" x1="5186" y1="19.8223" x2="2559.06" y2="80.4211" gradientUnits="userSpaceOnUse">
<stop stop-color="#DD5AFE"/>
<stop offset="1" stop-color="#6366F1"/>
</linearGradient>
<linearGradient id="paint24_linear_59_1308" x1="5186" y1="39.7087" x2="2560.62" y2="103.415" gradientUnits="userSpaceOnUse">
<stop stop-color="#DD5AFE"/>
<stop offset="1" stop-color="#6366F1"/>
</linearGradient>
<linearGradient id="paint25_linear_59_1308" x1="5186" y1="59.531" x2="2562.27" y2="126.667" gradientUnits="userSpaceOnUse">
<stop stop-color="#DD5AFE"/>
<stop offset="1" stop-color="#6366F1"/>
</linearGradient>
<linearGradient id="paint26_linear_59_1308" x1="5186" y1="79.3533" x2="2563.95" y2="150.317" gradientUnits="userSpaceOnUse">
<stop stop-color="#DD5AFE"/>
<stop offset="1" stop-color="#6366F1"/>
</linearGradient>
<linearGradient id="paint27_linear_59_1308" x1="5186" y1="99.2397" x2="2565.67" y2="174.529" gradientUnits="userSpaceOnUse">
<stop stop-color="#DD5AFE"/>
<stop offset="1" stop-color="#6366F1"/>
</linearGradient>
<linearGradient id="paint28_linear_59_1308" x1="5186" y1="119.062" x2="2567.44" y2="199.249" gradientUnits="userSpaceOnUse">
<stop stop-color="#DD5AFE"/>
<stop offset="1" stop-color="#6366F1"/>
</linearGradient>
<linearGradient id="paint29_linear_59_1308" x1="5186" y1="138.884" x2="2569.27" y2="224.632" gradientUnits="userSpaceOnUse">
<stop stop-color="#DD5AFE"/>
<stop offset="1" stop-color="#6366F1"/>
</linearGradient>
<linearGradient id="paint30_linear_59_1308" x1="5186" y1="158.771" x2="2571.19" y2="250.959" gradientUnits="userSpaceOnUse">
<stop stop-color="#DD5AFE"/>
<stop offset="1" stop-color="#6366F1"/>
</linearGradient>
<linearGradient id="paint31_linear_59_1308" x1="5186" y1="178.593" x2="2573.22" y2="278.242" gradientUnits="userSpaceOnUse">
<stop stop-color="#DD5AFE"/>
<stop offset="1" stop-color="#6366F1"/>
</linearGradient>
<linearGradient id="paint32_linear_59_1308" x1="5186" y1="198.479" x2="2575.41" y2="306.973" gradientUnits="userSpaceOnUse">
<stop stop-color="#DD5AFE"/>
<stop offset="1" stop-color="#6366F1"/>
</linearGradient>
<linearGradient id="paint33_linear_59_1308" x1="5186" y1="218.302" x2="2577.81" y2="337.385" gradientUnits="userSpaceOnUse">
<stop stop-color="#DD5AFE"/>
<stop offset="1" stop-color="#6366F1"/>
</linearGradient>
<linearGradient id="paint34_linear_59_1308" x1="5186" y1="238.124" x2="2580.53" y2="370.04" gradientUnits="userSpaceOnUse">
<stop stop-color="#DD5AFE"/>
<stop offset="1" stop-color="#6366F1"/>
</linearGradient>
<linearGradient id="paint35_linear_59_1308" x1="5185.94" y1="258.01" x2="2583.75" y2="405.976" gradientUnits="userSpaceOnUse">
<stop stop-color="#DD5AFE"/>
<stop offset="1" stop-color="#6366F1"/>
</linearGradient>
<linearGradient id="paint36_linear_59_1308" x1="5185.94" y1="277.833" x2="2587.66" y2="446.226" gradientUnits="userSpaceOnUse">
<stop stop-color="#DD5AFE"/>
<stop offset="1" stop-color="#6366F1"/>
</linearGradient>
<linearGradient id="paint37_linear_59_1308" x1="5185.94" y1="297.655" x2="2592.95" y2="493.04" gradientUnits="userSpaceOnUse">
<stop stop-color="#DD5AFE"/>
<stop offset="1" stop-color="#6366F1"/>
</linearGradient>
<linearGradient id="paint38_linear_59_1308" x1="5185.94" y1="317.541" x2="2600.73" y2="550.698" gradientUnits="userSpaceOnUse">
<stop stop-color="#DD5AFE"/>
<stop offset="1" stop-color="#6366F1"/>
</linearGradient>
<linearGradient id="paint39_linear_59_1308" x1="5185.94" y1="337.364" x2="2613.48" y2="625.618" gradientUnits="userSpaceOnUse">
<stop stop-color="#DD5AFE"/>
<stop offset="1" stop-color="#6366F1"/>
</linearGradient>
<linearGradient id="paint40_linear_59_1308" x1="5185.94" y1="357.186" x2="2638.43" y2="734.134" gradientUnits="userSpaceOnUse">
<stop stop-color="#DD5AFE"/>
<stop offset="1" stop-color="#6366F1"/>
</linearGradient>
<linearGradient id="paint41_linear_59_1308" x1="5185.94" y1="377.072" x2="2702.6" y2="919.451" gradientUnits="userSpaceOnUse">
<stop stop-color="#DD5AFE"/>
<stop offset="1" stop-color="#6366F1"/>
</linearGradient>
<linearGradient id="paint42_linear_59_1308" x1="5185.94" y1="396.895" x2="2968.2" y2="1318.02" gradientUnits="userSpaceOnUse">
<stop stop-color="#DD5AFE"/>
<stop offset="1" stop-color="#6366F1"/>
</linearGradient>
<linearGradient id="paint43_linear_59_1308" x1="5185.94" y1="416.717" x2="5062.76" y2="968.931" gradientUnits="userSpaceOnUse">
<stop stop-color="#DD5AFE"/>
<stop offset="1" stop-color="#6366F1"/>
</linearGradient>
</defs>
</svg>
